0
SECTION
2
HEADER
9
$ACADVER
1
AC1015
0
ENDSEC
0
SECTION
2
TABLES
0
TABLE
2
LAYER
70
10
0
LAYER
2
FORBIDDEN_SECTIONS
70
0
62
2
6
CONTINUOUS
0
LAYER
2
ORIGIN_DEST
70
0
62
4
6
CONTINUOUS
0
LAYER
2
ALGORITHM_PATH
70
0
62
3
6
CONTINUOUS
0
LAYER
2
DIRECT_PATH
70
0
62
5
6
DASHED
0
LAYER
2
LABELS
70
0
62
4
6
CONTINUOUS
0
ENDTAB
0
ENDSEC
0
SECTION
2
ENTITIES
0
LINE
8
FORBIDDEN_SECTIONS
62
2
10
139.683
20
27.925
30
149.385
11
140.183
21
28.000
31
149.385
0
TEXT
8
LABELS
62
2
10
139.933
20
27.962
30
149.385
40
1.000
1
TRAMO_4
0
CIRCLE
8
FORBIDDEN_SECTIONS
62
2
10
139.683
20
27.925
30
149.385
40
0.500
0
CIRCLE
8
FORBIDDEN_SECTIONS
62
2
10
140.183
20
28.000
30
149.385
40
0.500
0
TEXT
8
LABELS
62
2
10
139.683
20
27.925
30
148.385
40
0.400
1
(139.7,27.9,149.4)
0
TEXT
8
LABELS
62
2
10
140.183
20
28.000
30
148.385
40
0.400
1
(140.2,28.0,149.4)
0
LINE
8
FORBIDDEN_SECTIONS
62
2
10
140.183
20
28.000
30
149.385
11
140.679
21
28.000
31
149.385
0
TEXT
8
LABELS
62
2
10
140.431
20
28.000
30
149.385
40
1.000
1
TRAMO_200
0
CIRCLE
8
FORBIDDEN_SECTIONS
62
2
10
140.183
20
28.000
30
149.385
40
0.500
0
CIRCLE
8
FORBIDDEN_SECTIONS
62
2
10
140.679
20
28.000
30
149.385
40
0.500
0
TEXT
8
LABELS
62
2
10
140.183
20
28.000
30
148.385
40
0.400
1
(140.2,28.0,149.4)
0
TEXT
8
LABELS
62
2
10
140.679
20
28.000
30
148.385
40
0.400
1
(140.7,28.0,149.4)
0
CIRCLE
8
ORIGIN_DEST
62
4
10
139.232
20
28.845
30
139.993
40
2.000
0
TEXT
8
LABELS
62
4
10
141.732
20
28.845
30
139.993
40
1.500
1
ORIGIN
0
CIRCLE
8
ORIGIN_DEST
62
4
10
152.290
20
17.883
30
160.124
40
2.000
0
TEXT
8
LABELS
62
4
10
154.790
20
17.883
30
160.124
40
1.500
1
DESTINATION
0
LINE
8
DIRECT_PATH
62
5
10
139.232
20
28.845
30
139.993
11
152.290
21
17.883
31
160.124
0
TEXT
8
LABELS
62
5
10
145.761
20
23.364
30
151.058
40
0.800
1
DIRECT_PATH
0
LINE
8
ALGORITHM_PATH
62
3
10
139.232
20
28.845
30
139.993
11
139.232
21
28.845
31
149.386
0
LINE
8
ALGORITHM_PATH
62
3
10
139.232
20
28.845
30
149.386
11
139.232
21
28.845
31
152.313
0
LINE
8
ALGORITHM_PATH
62
3
10
139.232
20
28.845
30
152.313
11
139.232
21
28.845
31
160.703
0
LINE
8
ALGORITHM_PATH
62
3
10
139.232
20
28.845
30
160.703
11
139.232
21
28.755
31
160.703
0
LINE
8
ALGORITHM_PATH
62
3
10
139.232
20
28.755
30
160.703
11
139.232
21
28.255
31
160.703
0
LINE
8
ALGORITHM_PATH
62
3
10
139.232
20
28.255
30
160.703
11
139.232
21
25.521
31
160.703
0
LINE
8
ALGORITHM_PATH
62
3
10
139.232
20
25.521
30
160.703
11
139.608
21
25.145
31
160.703
0
LINE
8
ALGORITHM_PATH
62
3
10
139.608
20
25.145
30
160.703
11
147.156
21
25.145
31
160.703
0
LINE
8
ALGORITHM_PATH
62
3
10
147.156
20
25.145
30
160.703
11
147.405
21
25.145
31
160.600
0
LINE
8
ALGORITHM_PATH
62
3
10
147.405
20
25.145
30
160.600
11
147.778
21
25.145
31
160.227
0
LINE
8
ALGORITHM_PATH
62
3
10
147.778
20
25.145
30
160.227
11
148.027
21
25.145
31
160.124
0
LINE
8
ALGORITHM_PATH
62
3
10
148.027
20
25.145
30
160.124
11
151.914
21
25.145
31
160.124
0
LINE
8
ALGORITHM_PATH
62
3
10
151.914
20
25.145
30
160.124
11
152.290
21
25.145
31
160.124
0
LINE
8
ALGORITHM_PATH
62
3
10
152.290
20
25.145
30
160.124
11
152.290
21
24.769
31
160.124
0
LINE
8
ALGORITHM_PATH
62
3
10
152.290
20
24.769
30
160.124
11
152.290
21
17.883
31
160.124
0
TEXT
8
LABELS
62
3
10
139.232
20
28.845
30
140.493
40
0.300
1
P1
0
TEXT
8
LABELS
62
3
10
139.232
20
28.845
30
161.203
40
0.300
1
P4
0
TEXT
8
LABELS
62
3
10
139.232
20
25.521
30
161.203
40
0.300
1
P7
0
TEXT
8
LABELS
62
3
10
147.405
20
25.145
30
161.100
40
0.300
1
P10
0
TEXT
8
LABELS
62
3
10
151.914
20
25.145
30
160.624
40
0.300
1
P13
0
TEXT
8
LABELS
62
3
10
152.290
20
17.883
30
160.624
40
0.300
1
P16
0
ENDSEC
0
EOF
