  0
SECTION
  2
HEADER
  9
$ACADVER
  1
AC1024
  9
$ACADMAINTVER
 70
6
  9
$DWGCODEPAGE
  3
ANSI_1252
  9
$LASTSAVEDBY
  1
ezdxf
  9
$INSBASE
 10
0.0
 20
0.0
 30
0.0
  9
$EXTMIN
 10
1e+20
 20
1e+20
 30
1e+20
  9
$EXTMAX
 10
-1e+20
 20
-1e+20
 30
-1e+20
  9
$LIMMIN
 10
0.0
 20
0.0
  9
$LIMMAX
 10
420.0
 20
297.0
  9
$ORTHOMODE
 70
0
  9
$REGENMODE
 70
1
  9
$FILLMODE
 70
1
  9
$QTEXTMODE
 70
0
  9
$MIRRTEXT
 70
1
  9
$LTSCALE
 40
1.0
  9
$ATTMODE
 70
1
  9
$TEXTSIZE
 40
2.5
  9
$TRACEWID
 40
1.0
  9
$TEXTSTYLE
  7
Standard
  9
$CLAYER
  8
0
  9
$CELTYPE
  6
ByLayer
  9
$CECOLOR
 62
256
  9
$CELTSCALE
 40
1.0
  9
$DISPSILH
 70
0
  9
$DIMSCALE
 40
1.0
  9
$DIMASZ
 40
2.5
  9
$DIMEXO
 40
0.625
  9
$DIMDLI
 40
3.75
  9
$DIMRND
 40
0.0
  9
$DIMDLE
 40
0.0
  9
$DIMEXE
 40
1.25
  9
$DIMTP
 40
0.0
  9
$DIMTM
 40
0.0
  9
$DIMTXT
 40
2.5
  9
$DIMCEN
 40
2.5
  9
$DIMTSZ
 40
0.0
  9
$DIMTOL
 70
0
  9
$DIMLIM
 70
0
  9
$DIMTIH
 70
0
  9
$DIMTOH
 70
0
  9
$DIMSE1
 70
0
  9
$DIMSE2
 70
0
  9
$DIMTAD
 70
1
  9
$DIMZIN
 70
8
  9
$DIMBLK
  1

  9
$DIMASO
 70
1
  9
$DIMSHO
 70
1
  9
$DIMPOST
  1

  9
$DIMAPOST
  1

  9
$DIMALT
 70
0
  9
$DIMALTD
 70
3
  9
$DIMALTF
 40
0.03937007874
  9
$DIMLFAC
 40
1.0
  9
$DIMTOFL
 70
1
  9
$DIMTVP
 40
0.0
  9
$DIMTIX
 70
0
  9
$DIMSOXD
 70
0
  9
$DIMSAH
 70
0
  9
$DIMBLK1
  1

  9
$DIMBLK2
  1

  9
$DIMSTYLE
  2
ISO-25
  9
$DIMCLRD
 70
0
  9
$DIMCLRE
 70
0
  9
$DIMCLRT
 70
0
  9
$DIMTFAC
 40
1.0
  9
$DIMGAP
 40
0.625
  9
$DIMJUST
 70
0
  9
$DIMSD1
 70
0
  9
$DIMSD2
 70
0
  9
$DIMTOLJ
 70
0
  9
$DIMTZIN
 70
8
  9
$DIMALTZ
 70
0
  9
$DIMALTTZ
 70
0
  9
$DIMUPT
 70
0
  9
$DIMDEC
 70
2
  9
$DIMTDEC
 70
2
  9
$DIMALTU
 70
2
  9
$DIMALTTD
 70
3
  9
$DIMTXSTY
  7
Standard
  9
$DIMAUNIT
 70
0
  9
$DIMADEC
 70
0
  9
$DIMALTRND
 40
0.0
  9
$DIMAZIN
 70
0
  9
$DIMDSEP
 70
44
  9
$DIMATFIT
 70
3
  9
$DIMFRAC
 70
0
  9
$DIMLDRBLK
  1

  9
$DIMLUNIT
 70
2
  9
$DIMLWD
 70
-2
  9
$DIMLWE
 70
-2
  9
$DIMTMOVE
 70
0
  9
$DIMFXL
 40
1.0
  9
$DIMFXLON
 70
0
  9
$DIMJOGANG
 40
0.785398163397
  9
$DIMTFILL
 70
0
  9
$DIMTFILLCLR
 70
0
  9
$DIMARCSYM
 70
0
  9
$DIMLTYPE
  6

  9
$DIMLTEX1
  6

  9
$DIMLTEX2
  6

  9
$DIMTXTDIRECTION
 70
0
  9
$LUNITS
 70
2
  9
$LUPREC
 70
4
  9
$SKETCHINC
 40
1.0
  9
$FILLETRAD
 40
10.0
  9
$AUNITS
 70
0
  9
$AUPREC
 70
2
  9
$MENU
  1
.
  9
$ELEVATION
 40
0.0
  9
$PELEVATION
 40
0.0
  9
$THICKNESS
 40
0.0
  9
$LIMCHECK
 70
0
  9
$CHAMFERA
 40
0.0
  9
$CHAMFERB
 40
0.0
  9
$CHAMFERC
 40
0.0
  9
$CHAMFERD
 40
0.0
  9
$SKPOLY
 70
0
  9
$TDCREATE
 40
2460858.4787615743
  9
$TDUCREATE
 40
2458532.153996898
  9
$TDUPDATE
 40
2460858.4787615743
  9
$TDUUPDATE
 40
2458532.1544311
  9
$TDINDWG
 40
0.0
  9
$TDUSRTIMER
 40
0.0
  9
$USRTIMER
 70
1
  9
$ANGBASE
 50
0.0
  9
$ANGDIR
 70
0
  9
$PDMODE
 70
0
  9
$PDSIZE
 40
0.0
  9
$PLINEWID
 40
0.0
  9
$SPLFRAME
 70
0
  9
$SPLINETYPE
 70
6
  9
$SPLINESEGS
 70
8
  9
$HANDSEED
  5
B5
  9
$SURFTAB1
 70
6
  9
$SURFTAB2
 70
6
  9
$SURFTYPE
 70
6
  9
$SURFU
 70
6
  9
$SURFV
 70
6
  9
$UCSBASE
  2

  9
$UCSNAME
  2

  9
$UCSORG
 10
0.0
 20
0.0
 30
0.0
  9
$UCSXDIR
 10
1.0
 20
0.0
 30
0.0
  9
$UCSYDIR
 10
0.0
 20
1.0
 30
0.0
  9
$UCSORTHOREF
  2

  9
$UCSORTHOVIEW
 70
0
  9
$UCSORGTOP
 10
0.0
 20
0.0
 30
0.0
  9
$UCSORGBOTTOM
 10
0.0
 20
0.0
 30
0.0
  9
$UCSORGLEFT
 10
0.0
 20
0.0
 30
0.0
  9
$UCSORGRIGHT
 10
0.0
 20
0.0
 30
0.0
  9
$UCSORGFRONT
 10
0.0
 20
0.0
 30
0.0
  9
$UCSORGBACK
 10
0.0
 20
0.0
 30
0.0
  9
$PUCSBASE
  2

  9
$PUCSNAME
  2

  9
$PUCSORG
 10
0.0
 20
0.0
 30
0.0
  9
$PUCSXDIR
 10
1.0
 20
0.0
 30
0.0
  9
$PUCSYDIR
 10
0.0
 20
1.0
 30
0.0
  9
$PUCSORTHOREF
  2

  9
$PUCSORTHOVIEW
 70
0
  9
$PUCSORGTOP
 10
0.0
 20
0.0
 30
0.0
  9
$PUCSORGBOTTOM
 10
0.0
 20
0.0
 30
0.0
  9
$PUCSORGLEFT
 10
0.0
 20
0.0
 30
0.0
  9
$PUCSORGRIGHT
 10
0.0
 20
0.0
 30
0.0
  9
$PUCSORGFRONT
 10
0.0
 20
0.0
 30
0.0
  9
$PUCSORGBACK
 10
0.0
 20
0.0
 30
0.0
  9
$USERI1
 70
0
  9
$USERI2
 70
0
  9
$USERI3
 70
0
  9
$USERI4
 70
0
  9
$USERI5
 70
0
  9
$USERR1
 40
0.0
  9
$USERR2
 40
0.0
  9
$USERR3
 40
0.0
  9
$USERR4
 40
0.0
  9
$USERR5
 40
0.0
  9
$WORLDVIEW
 70
1
  9
$SHADEDGE
 70
3
  9
$SHADEDIF
 70
70
  9
$TILEMODE
 70
1
  9
$MAXACTVP
 70
64
  9
$PINSBASE
 10
0.0
 20
0.0
 30
0.0
  9
$PLIMCHECK
 70
0
  9
$PEXTMIN
 10
1e+20
 20
1e+20
 30
1e+20
  9
$PEXTMAX
 10
-1e+20
 20
-1e+20
 30
-1e+20
  9
$PLIMMIN
 10
0.0
 20
0.0
  9
$PLIMMAX
 10
420.0
 20
297.0
  9
$UNITMODE
 70
0
  9
$VISRETAIN
 70
1
  9
$PLINEGEN
 70
0
  9
$PSLTSCALE
 70
1
  9
$TREEDEPTH
 70
3020
  9
$CMLSTYLE
  2
Standard
  9
$CMLJUST
 70
0
  9
$CMLSCALE
 40
20.0
  9
$PROXYGRAPHICS
 70
1
  9
$MEASUREMENT
 70
1
  9
$CELWEIGHT
370
-1
  9
$ENDCAPS
280
0
  9
$JOINSTYLE
280
0
  9
$LWDISPLAY
290
0
  9
$INSUNITS
 70
6
  9
$HYPERLINKBASE
  1

  9
$STYLESHEET
  1

  9
$XEDIT
290
1
  9
$CEPSNTYPE
380
0
  9
$PSTYLEMODE
290
1
  9
$FINGERPRINTGUID
  2
{8649FEAF-D670-4231-A8E3-F558134444A9}
  9
$VERSIONGUID
  2
{CD43A355-AA06-4216-909A-51E211E59712}
  9
$EXTNAMES
290
1
  9
$PSVPSCALE
 40
0.0
  9
$OLESTARTUP
290
0
  9
$SORTENTS
280
127
  9
$INDEXCTL
280
0
  9
$HIDETEXT
280
1
  9
$XCLIPFRAME
280
1
  9
$HALOGAP
280
0
  9
$OBSCOLOR
 70
257
  9
$OBSLTYPE
280
0
  9
$INTERSECTIONDISPLAY
280
0
  9
$INTERSECTIONCOLOR
 70
257
  9
$DIMASSOC
280
2
  9
$PROJECTNAME
  1

  9
$CAMERADISPLAY
290
0
  9
$LENSLENGTH
 40
50.0
  9
$CAMERAHEIGHT
 40
0.0
  9
$STEPSPERSEC
 40
24.0
  9
$STEPSIZE
 40
100.0
  9
$3DDWFPREC
 40
2.0
  9
$PSOLWIDTH
 40
0.005
  9
$PSOLHEIGHT
 40
0.08
  9
$LOFTANG1
 40
1.570796326795
  9
$LOFTANG2
 40
1.570796326795
  9
$LOFTMAG1
 40
0.0
  9
$LOFTMAG2
 40
0.0
  9
$LOFTPARAM
 70
7
  9
$LOFTNORMALS
280
1
  9
$LATITUDE
 40
37.795
  9
$LONGITUDE
 40
-122.394
  9
$NORTHDIRECTION
 40
0.0
  9
$TIMEZONE
 70
-8000
  9
$LIGHTGLYPHDISPLAY
280
1
  9
$TILEMODELIGHTSYNCH
280
1
  9
$CMATERIAL
347
20
  9
$SOLIDHIST
280
0
  9
$SHOWHIST
280
1
  9
$DWFFRAME
280
2
  9
$DGNFRAME
280
2
  9
$REALWORLDSCALE
290
1
  9
$INTERFERECOLOR
 62
256
  9
$CSHADOW
280
0
  9
$SHADOWPLANELOCATION
 40
0.0
  0
ENDSEC
  0
SECTION
  2
CLASSES
  0
CLASS
  1
ACDBDICTIONARYWDFLT
  2
AcDbDictionaryWithDefault
  3
ObjectDBX Classes
 90
0
 91
0
280
0
281
0
  0
CLASS
  1
SUN
  2
AcDbSun
  3
SCENEOE
 90
1153
 91
0
280
0
281
0
  0
CLASS
  1
VISUALSTYLE
  2
AcDbVisualStyle
  3
ObjectDBX Classes
 90
4095
 91
0
280
0
281
0
  0
CLASS
  1
MATERIAL
  2
AcDbMaterial
  3
ObjectDBX Classes
 90
1153
 91
0
280
0
281
0
  0
CLASS
  1
SCALE
  2
AcDbScale
  3
ObjectDBX Classes
 90
1153
 91
0
280
0
281
0
  0
CLASS
  1
TABLESTYLE
  2
AcDbTableStyle
  3
ObjectDBX Classes
 90
4095
 91
0
280
0
281
0
  0
CLASS
  1
MLEADERSTYLE
  2
AcDbMLeaderStyle
  3
ACDB_MLEADERSTYLE_CLASS
 90
4095
 91
0
280
0
281
0
  0
CLASS
  1
DICTIONARYVAR
  2
AcDbDictionaryVar
  3
ObjectDBX Classes
 90
0
 91
0
280
0
281
0
  0
CLASS
  1
CELLSTYLEMAP
  2
AcDbCellStyleMap
  3
ObjectDBX Classes
 90
1152
 91
0
280
0
281
0
  0
CLASS
  1
MENTALRAYRENDERSETTINGS
  2
AcDbMentalRayRenderSettings
  3
SCENEOE
 90
1024
 91
0
280
0
281
0
  0
CLASS
  1
ACDBDETAILVIEWSTYLE
  2
AcDbDetailViewStyle
  3
ObjectDBX Classes
 90
1025
 91
0
280
0
281
0
  0
CLASS
  1
ACDBSECTIONVIEWSTYLE
  2
AcDbSectionViewStyle
  3
ObjectDBX Classes
 90
1025
 91
0
280
0
281
0
  0
CLASS
  1
RASTERVARIABLES
  2
AcDbRasterVariables
  3
ISM
 90
0
 91
0
280
0
281
0
  0
CLASS
  1
LAYOUT
  2
AcDbLayout
  3
ObjectDBX Classes
 90
0
 91
0
280
0
281
0
  0
CLASS
  1
ACDBPLACEHOLDER
  2
AcDbPlaceHolder
  3
ObjectDBX Classes
 90
0
 91
0
280
0
281
0
  0
ENDSEC
  0
SECTION
  2
TABLES
  0
TABLE
  2
VPORT
  5
8
330
0
100
AcDbSymbolTable
 70
1
  0
VPORT
  5
23
330
8
100
AcDbSymbolTableRecord
100
AcDbViewportTableRecord
  2
*Active
 70
0
 10
0.0
 20
0.0
 11
1.0
 21
1.0
 12
0.0
 22
0.0
 13
0.0
 23
0.0
 14
0.5
 24
0.5
 15
0.5
 25
0.5
 16
0.0
 26
0.0
 36
1.0
 17
0.0
 27
0.0
 37
0.0
 40
1000.0
 41
1.34
 42
50.0
 43
0.0
 44
0.0
 50
0.0
 51
0.0
 71
0
 72
1000
 73
1
 74
3
 75
0
 76
0
 77
0
 78
0
281
0
 65
0
146
0.0
  0
ENDTAB
  0
TABLE
  2
LTYPE
  5
2
330
0
100
AcDbSymbolTable
 70
3
  0
LTYPE
  5
24
330
2
100
AcDbSymbolTableRecord
100
AcDbLinetypeTableRecord
  2
ByBlock
 70
0
  3

 72
65
 73
0
 40
0.0
  0
LTYPE
  5
25
330
2
100
AcDbSymbolTableRecord
100
AcDbLinetypeTableRecord
  2
ByLayer
 70
0
  3

 72
65
 73
0
 40
0.0
  0
LTYPE
  5
26
330
2
100
AcDbSymbolTableRecord
100
AcDbLinetypeTableRecord
  2
Continuous
 70
0
  3

 72
65
 73
0
 40
0.0
  0
ENDTAB
  0
TABLE
  2
LAYER
  5
1
330
0
100
AcDbSymbolTable
 70
2
  0
LAYER
  5
27
330
1
100
AcDbSymbolTableRecord
100
AcDbLayerTableRecord
  2
0
 70
0
 62
7
  6
Continuous
370
-3
390
13
347
21
  0
LAYER
  5
28
330
1
100
AcDbSymbolTableRecord
100
AcDbLayerTableRecord
  2
Defpoints
 70
0
 62
7
  6
Continuous
290
0
370
-3
390
13
347
21
  0
ENDTAB
  0
TABLE
  2
STYLE
  5
5
330
0
100
AcDbSymbolTable
 70
1
  0
STYLE
  5
29
330
5
100
AcDbSymbolTableRecord
100
AcDbTextStyleTableRecord
  2
Standard
 70
0
 40
0.0
 41
1.0
 50
0.0
 71
0
 42
2.5
  3
txt
  4

  0
ENDTAB
  0
TABLE
  2
VIEW
  5
7
330
0
100
AcDbSymbolTable
 70
0
  0
ENDTAB
  0
TABLE
  2
UCS
  5
6
330
0
100
AcDbSymbolTable
 70
0
  0
ENDTAB
  0
TABLE
  2
APPID
  5
3
330
0
100
AcDbSymbolTable
 70
3
  0
APPID
  5
2A
330
3
100
AcDbSymbolTableRecord
100
AcDbRegAppTableRecord
  2
ACAD
 70
0
  0
APPID
  5
B2
330
3
100
AcDbSymbolTableRecord
100
AcDbRegAppTableRecord
  2
HATCHBACKGROUNDCOLOR
 70
0
  0
APPID
  5
B3
330
3
100
AcDbSymbolTableRecord
100
AcDbRegAppTableRecord
  2
EZDXF
 70
0
  0
ENDTAB
  0
TABLE
  2
DIMSTYLE
  5
4
330
0
100
AcDbSymbolTable
 70
1
100
AcDbDimStyleTable
  0
DIMSTYLE
105
2B
330
4
100
AcDbSymbolTableRecord
100
AcDbDimStyleTableRecord
  2
Standard
 70
0
 40
1.0
 41
2.5
 42
0.625
 43
3.75
 44
1.25
 45
0.0
 46
0.0
 47
0.0
 48
0.0
 49
2.5
140
2.5
141
2.5
142
0.0
143
0.03937007874
144
1.0
145
0.0
146
1.0
147
0.625
148
0.0
 69
0
 70
0
 71
0
 72
0
 73
0
 74
0
 75
0
 76
0
 77
1
 78
8
 79
3
170
0
171
3
172
1
173
0
174
0
175
0
176
0
177
0
178
0
179
2
271
2
272
2
273
2
274
3
275
0
276
0
277
2
278
44
279
0
280
0
281
0
282
0
283
0
284
8
285
0
286
0
288
0
289
3
290
0
371
-2
372
-2
  0
ENDTAB
  0
TABLE
  2
BLOCK_RECORD
  5
9
330
0
100
AcDbSymbolTable
 70
2
  0
BLOCK_RECORD
  5
17
330
9
100
AcDbSymbolTableRecord
100
AcDbBlockTableRecord
  2
*Model_Space
340
1A
 70
0
280
1
281
0
  0
BLOCK_RECORD
  5
1B
330
9
100
AcDbSymbolTableRecord
100
AcDbBlockTableRecord
  2
*Paper_Space
340
1E
 70
0
280
1
281
0
  0
ENDTAB
  0
ENDSEC
  0
SECTION
  2
BLOCKS
  0
BLOCK
  5
18
330
17
100
AcDbEntity
  8
0
100
AcDbBlockBegin
  2
*Model_Space
 70
0
 10
0.0
 20
0.0
 30
0.0
  3
*Model_Space
  1

  0
ENDBLK
  5
19
330
17
100
AcDbEntity
  8
0
100
AcDbBlockEnd
  0
BLOCK
  5
1C
330
1B
100
AcDbEntity
  8
0
100
AcDbBlockBegin
  2
*Paper_Space
 70
0
 10
0.0
 20
0.0
 30
0.0
  3
*Paper_Space
  1

  0
ENDBLK
  5
1D
330
1B
100
AcDbEntity
  8
0
100
AcDbBlockEnd
  0
ENDSEC
  0
SECTION
  2
ENTITIES
  0
LINE
  5
2F
330
17
100
AcDbEntity
  8
0
 62
1
370
50
100
AcDbLine
 10
176.553
 20
6.028
 30
150.34
 11
176.553
 21
3.703
 31
150.34
  0
LINE
  5
30
330
17
100
AcDbEntity
  8
0
 62
1
370
50
100
AcDbLine
 10
176.553
 20
3.703
 30
150.34
 11
176.45
 21
3.453
 31
150.34
  0
LINE
  5
31
330
17
100
AcDbEntity
  8
0
 62
1
370
50
100
AcDbLine
 10
176.45
 20
3.453
 30
150.34
 11
176.165
 21
3.168
 31
150.34
  0
LINE
  5
32
330
17
100
AcDbEntity
  8
0
 62
1
370
50
100
AcDbLine
 10
176.165
 20
3.168
 30
150.34
 11
176.062
 21
2.919
 31
150.34
  0
LINE
  5
33
330
17
100
AcDbEntity
  8
0
 62
1
370
50
100
AcDbLine
 10
176.062
 20
2.919
 30
150.34
 11
176.062
 21
2.469
 31
150.34
  0
LINE
  5
34
330
17
100
AcDbEntity
  8
0
 62
1
370
50
100
AcDbLine
 10
176.062
 20
2.469
 30
150.34
 11
176.062
 21
2.416
 31
150.34
  0
LINE
  5
35
330
17
100
AcDbEntity
  8
0
 62
1
370
50
100
AcDbLine
 10
176.062
 20
2.416
 30
150.34
 11
176.062
 21
2.416
 31
153.96
  0
LINE
  5
36
330
17
100
AcDbEntity
  8
0
 62
1
370
50
100
AcDbLine
 10
176.062
 20
2.416
 30
153.96
 11
176.062
 21
2.416
 31
144.238
  0
LINE
  5
37
330
17
100
AcDbEntity
  8
0
 62
1
370
50
100
AcDbLine
 10
176.062
 20
2.416
 30
144.238
 11
176.062
 21
2.416
 31
143.788
  0
LINE
  5
38
330
17
100
AcDbEntity
  8
0
 62
1
370
50
100
AcDbLine
 10
176.062
 20
2.416
 30
143.788
 11
176.062
 21
2.416
 31
140.678
  0
LINE
  5
39
330
17
100
AcDbEntity
  8
0
 62
1
370
50
100
AcDbLine
 10
176.062
 20
2.416
 30
140.678
 11
176.141
 21
2.49
 31
140.678
  0
LINE
  5
3A
330
17
100
AcDbEntity
  8
0
 62
1
370
50
100
AcDbLine
 10
176.141
 20
2.49
 30
140.678
 11
176.141
 21
2.94
 31
140.678
  0
LINE
  5
3B
330
17
100
AcDbEntity
  8
0
 62
1
370
50
100
AcDbLine
 10
176.141
 20
2.94
 30
140.678
 11
176.141
 21
2.987
 31
140.678
  0
LINE
  5
3C
330
17
100
AcDbEntity
  8
0
 62
1
370
50
100
AcDbLine
 10
176.141
 20
2.987
 30
140.678
 11
176.317
 21
3.413
 31
140.678
  0
LINE
  5
3D
330
17
100
AcDbEntity
  8
0
 62
1
370
50
100
AcDbLine
 10
176.317
 20
3.413
 30
140.678
 11
176.609
 21
3.706
 31
140.678
  0
LINE
  5
3E
330
17
100
AcDbEntity
  8
0
 62
1
370
50
100
AcDbLine
 10
176.609
 20
3.706
 30
140.678
 11
176.786
 21
4.132
 31
140.678
  0
LINE
  5
3F
330
17
100
AcDbEntity
  8
0
 62
1
370
50
100
AcDbLine
 10
176.786
 20
4.132
 30
140.678
 11
176.786
 21
5.361
 31
140.678
  0
LINE
  5
40
330
17
100
AcDbEntity
  8
0
 62
1
370
50
100
AcDbLine
 10
176.786
 20
5.361
 30
140.678
 11
176.786
 21
5.962
 31
140.678
  0
LINE
  5
41
330
17
100
AcDbEntity
  8
0
 62
1
370
50
100
AcDbLine
 10
176.786
 20
5.962
 30
140.678
 11
176.185
 21
5.962
 31
140.678
  0
LINE
  5
42
330
17
100
AcDbEntity
  8
0
 62
1
370
50
100
AcDbLine
 10
176.185
 20
5.962
 30
140.678
 11
175.759
 21
6.139
 31
140.678
  0
LINE
  5
43
330
17
100
AcDbEntity
  8
0
 62
1
370
50
100
AcDbLine
 10
175.759
 20
6.139
 30
140.678
 11
175.501
 21
6.397
 31
140.678
  0
LINE
  5
44
330
17
100
AcDbEntity
  8
0
 62
1
370
50
100
AcDbLine
 10
175.501
 20
6.397
 30
140.678
 11
175.075
 21
6.573
 31
140.678
  0
LINE
  5
45
330
17
100
AcDbEntity
  8
0
 62
1
370
50
100
AcDbLine
 10
175.075
 20
6.573
 30
140.678
 11
173.073
 21
6.573
 31
140.678
  0
LINE
  5
46
330
17
100
AcDbEntity
  8
0
 62
1
370
50
100
AcDbLine
 10
173.073
 20
6.573
 30
140.678
 11
172.472
 21
7.174
 31
140.678
  0
LINE
  5
47
330
17
100
AcDbEntity
  8
0
 62
1
370
50
100
AcDbLine
 10
172.472
 20
7.174
 30
140.678
 11
172.472
 21
7.367
 31
140.678
  0
LINE
  5
48
330
17
100
AcDbEntity
  8
0
 62
1
370
50
100
AcDbLine
 10
172.472
 20
7.367
 30
140.678
 11
171.871
 21
7.968
 31
140.678
  0
LINE
  5
49
330
17
100
AcDbEntity
  8
0
 62
1
370
50
100
AcDbLine
 10
171.871
 20
7.968
 30
140.678
 11
169.979
 21
7.968
 31
140.678
  0
LINE
  5
4A
330
17
100
AcDbEntity
  8
0
 62
1
370
50
100
AcDbLine
 10
169.979
 20
7.968
 30
140.678
 11
169.378
 21
7.367
 31
140.678
  0
LINE
  5
4B
330
17
100
AcDbEntity
  8
0
 62
1
370
50
100
AcDbLine
 10
169.378
 20
7.367
 30
140.678
 11
169.378
 21
5.669
 31
140.678
  0
LINE
  5
4C
330
17
100
AcDbEntity
  8
0
 62
1
370
50
100
AcDbLine
 10
169.378
 20
5.669
 30
140.678
 11
169.378
 21
7.367
 31
140.678
  0
LINE
  5
4D
330
17
100
AcDbEntity
  8
0
 62
1
370
50
100
AcDbLine
 10
169.378
 20
7.367
 30
140.678
 11
169.979
 21
7.968
 31
140.678
  0
LINE
  5
4E
330
17
100
AcDbEntity
  8
0
 62
1
370
50
100
AcDbLine
 10
169.979
 20
7.968
 30
140.678
 11
171.871
 21
7.968
 31
140.678
  0
LINE
  5
4F
330
17
100
AcDbEntity
  8
0
 62
1
370
50
100
AcDbLine
 10
171.871
 20
7.968
 30
140.678
 11
172.472
 21
7.367
 31
140.678
  0
LINE
  5
50
330
17
100
AcDbEntity
  8
0
 62
1
370
50
100
AcDbLine
 10
172.472
 20
7.367
 30
140.678
 11
172.472
 21
7.174
 31
140.678
  0
LINE
  5
51
330
17
100
AcDbEntity
  8
0
 62
1
370
50
100
AcDbLine
 10
172.472
 20
7.174
 30
140.678
 11
173.073
 21
6.573
 31
140.678
  0
LINE
  5
52
330
17
100
AcDbEntity
  8
0
 62
1
370
50
100
AcDbLine
 10
173.073
 20
6.573
 30
140.678
 11
175.075
 21
6.573
 31
140.678
  0
LINE
  5
53
330
17
100
AcDbEntity
  8
0
 62
1
370
50
100
AcDbLine
 10
175.075
 20
6.573
 30
140.678
 11
175.501
 21
6.397
 31
140.678
  0
LINE
  5
54
330
17
100
AcDbEntity
  8
0
 62
1
370
50
100
AcDbLine
 10
175.501
 20
6.397
 30
140.678
 11
175.759
 21
6.139
 31
140.678
  0
LINE
  5
55
330
17
100
AcDbEntity
  8
0
 62
1
370
50
100
AcDbLine
 10
175.759
 20
6.139
 30
140.678
 11
176.185
 21
5.962
 31
140.678
  0
LINE
  5
56
330
17
100
AcDbEntity
  8
0
 62
1
370
50
100
AcDbLine
 10
176.185
 20
5.962
 30
140.678
 11
176.786
 21
5.962
 31
140.678
  0
LINE
  5
57
330
17
100
AcDbEntity
  8
0
 62
1
370
50
100
AcDbLine
 10
176.786
 20
5.962
 30
140.678
 11
176.786
 21
5.361
 31
140.678
  0
LINE
  5
58
330
17
100
AcDbEntity
  8
0
 62
1
370
50
100
AcDbLine
 10
176.786
 20
5.361
 30
140.678
 11
176.786
 21
4.132
 31
140.678
  0
LINE
  5
59
330
17
100
AcDbEntity
  8
0
 62
1
370
50
100
AcDbLine
 10
176.786
 20
4.132
 30
140.678
 11
176.609
 21
3.706
 31
140.678
  0
LINE
  5
5A
330
17
100
AcDbEntity
  8
0
 62
1
370
50
100
AcDbLine
 10
176.609
 20
3.706
 30
140.678
 11
176.317
 21
3.413
 31
140.678
  0
LINE
  5
5B
330
17
100
AcDbEntity
  8
0
 62
1
370
50
100
AcDbLine
 10
176.317
 20
3.413
 30
140.678
 11
176.141
 21
2.987
 31
140.678
  0
LINE
  5
5C
330
17
100
AcDbEntity
  8
0
 62
1
370
50
100
AcDbLine
 10
176.141
 20
2.987
 30
140.678
 11
176.141
 21
2.94
 31
140.678
  0
LINE
  5
5D
330
17
100
AcDbEntity
  8
0
 62
1
370
50
100
AcDbLine
 10
176.141
 20
2.94
 30
140.678
 11
176.141
 21
2.49
 31
140.678
  0
LINE
  5
5E
330
17
100
AcDbEntity
  8
0
 62
1
370
50
100
AcDbLine
 10
176.141
 20
2.49
 30
140.678
 11
176.062
 21
2.416
 31
140.678
  0
LINE
  5
5F
330
17
100
AcDbEntity
  8
0
 62
1
370
50
100
AcDbLine
 10
176.062
 20
2.416
 30
140.678
 11
176.062
 21
2.416
 31
143.788
  0
LINE
  5
60
330
17
100
AcDbEntity
  8
0
 62
1
370
50
100
AcDbLine
 10
176.062
 20
2.416
 30
143.788
 11
176.062
 21
2.416
 31
137.291
  0
LINE
  5
61
330
17
100
AcDbEntity
  8
0
 62
1
370
50
100
AcDbLine
 10
176.062
 20
2.416
 30
137.291
 11
176.062
 21
2.768
 31
136.939
  0
LINE
  5
62
330
17
100
AcDbEntity
  8
0
 62
1
370
50
100
AcDbLine
 10
176.062
 20
2.768
 30
136.939
 11
176.062
 21
3.345
 31
136.939
  0
LINE
  5
63
330
17
100
AcDbEntity
  8
0
 62
1
370
50
100
AcDbLine
 10
176.062
 20
3.345
 30
136.939
 11
176.062
 21
3.721
 31
136.939
  0
LINE
  5
64
330
17
100
AcDbEntity
  8
0
 62
1
370
50
100
AcDbLine
 10
176.062
 20
3.721
 30
136.939
 11
176.062
 21
4.097
 31
136.939
  0
LINE
  5
65
330
17
100
AcDbEntity
  8
0
 62
1
370
50
100
AcDbLine
 10
176.062
 20
4.097
 30
136.939
 11
175.841
 21
4.629
 31
136.939
  0
LINE
  5
66
330
17
100
AcDbEntity
  8
0
 62
1
370
50
100
AcDbLine
 10
175.841
 20
4.629
 30
136.939
 11
175.08
 21
5.39
 31
136.939
  0
LINE
  5
67
330
17
100
AcDbEntity
  8
0
 62
1
370
50
100
AcDbLine
 10
175.08
 20
5.39
 30
136.939
 11
174.86
 21
5.922
 31
136.939
  0
LINE
  5
68
330
17
100
AcDbEntity
  8
0
 62
1
370
50
100
AcDbLine
 10
174.86
 20
5.922
 30
136.939
 11
174.86
 21
6.249
 31
136.939
  0
LINE
  5
69
330
17
100
AcDbEntity
  8
0
 62
1
370
50
100
AcDbLine
 10
174.86
 20
6.249
 30
136.939
 11
174.86
 21
6.85
 31
136.939
  0
LINE
  5
6A
330
17
100
AcDbEntity
  8
0
 62
1
370
50
100
AcDbLine
 10
174.86
 20
6.85
 30
136.939
 11
174.86
 21
7.451
 31
136.939
  0
LINE
  5
6B
330
17
100
AcDbEntity
  8
0
 62
1
370
50
100
AcDbLine
 10
174.86
 20
7.451
 30
136.939
 11
174.86
 21
8.857
 31
136.939
  0
LINE
  5
6C
330
17
100
AcDbEntity
  8
0
 62
1
370
50
100
AcDbLine
 10
174.86
 20
8.857
 30
136.939
 11
174.86
 21
9.308
 31
136.939
  0
LINE
  5
6D
330
17
100
AcDbEntity
  8
0
 62
1
370
50
100
AcDbLine
 10
174.86
 20
9.308
 30
136.939
 11
174.86
 21
9.759
 31
136.939
  0
LINE
  5
6E
330
17
100
AcDbEntity
  8
0
 62
1
370
50
100
AcDbLine
 10
174.86
 20
9.759
 30
136.939
 11
174.86
 21
10.328
 31
136.939
  0
LINE
  5
6F
330
17
100
AcDbEntity
  8
0
 62
1
370
50
100
AcDbLine
 10
174.86
 20
10.328
 30
136.939
 11
174.86
 21
10.68
 31
136.587
  0
LINE
  5
70
330
17
100
AcDbEntity
  8
0
 62
1
370
50
100
AcDbLine
 10
174.86
 20
10.68
 30
136.587
 11
174.86
 21
10.68
 31
136.474
  0
LINE
  5
71
330
17
100
AcDbEntity
  8
0
 62
1
370
50
100
AcDbLine
 10
174.86
 20
10.68
 30
136.474
 11
174.86
 21
11.032
 31
136.122
  0
LINE
  5
72
330
17
100
AcDbEntity
  8
0
 62
1
370
50
100
AcDbLine
 10
174.86
 20
11.032
 30
136.122
 11
174.86
 21
11.187
 31
136.122
  0
LINE
  5
73
330
17
100
AcDbEntity
  8
0
 62
1
370
50
100
AcDbLine
 10
174.86
 20
11.187
 30
136.122
 11
174.86
 21
11.287
 31
136.127
  0
LINE
  5
74
330
17
100
AcDbEntity
  8
0
 62
1
370
50
100
AcDbLine
 10
174.86
 20
11.287
 30
136.127
 11
174.86
 21
14.545
 31
136.127
  0
LINE
  5
75
330
17
100
AcDbEntity
  8
0
 62
1
370
50
100
AcDbLine
 10
174.86
 20
14.545
 30
136.127
 11
174.86
 21
14.666
 31
136.248
  0
LINE
  5
76
330
17
100
AcDbEntity
  8
0
 62
1
370
50
100
AcDbLine
 10
174.86
 20
14.666
 30
136.248
 11
174.86
 21
14.666
 31
136.466
  0
LINE
  5
77
330
17
100
AcDbEntity
  8
0
 62
1
370
50
100
AcDbLine
 10
174.86
 20
14.666
 30
136.466
 11
174.86
 21
14.787
 31
136.587
  0
LINE
  5
78
330
17
100
AcDbEntity
  8
0
 62
1
370
50
100
AcDbLine
 10
174.86
 20
14.787
 30
136.587
 11
174.86
 21
15.369
 31
136.587
  0
LINE
  5
79
330
17
100
AcDbEntity
  8
0
 62
3
370
30
100
AcDbLine
 10
176.753
 20
6.228
 30
150.34
 11
176.753
 21
3.903
 31
150.34
  0
LINE
  5
7A
330
17
100
AcDbEntity
  8
0
 62
3
370
30
100
AcDbLine
 10
176.753
 20
3.903
 30
150.34
 11
176.64999999999998
 21
3.653
 31
150.34
  0
LINE
  5
7B
330
17
100
AcDbEntity
  8
0
 62
3
370
30
100
AcDbLine
 10
176.64999999999998
 20
3.653
 30
150.34
 11
176.36499999999998
 21
3.3680000000000003
 31
150.34
  0
LINE
  5
7C
330
17
100
AcDbEntity
  8
0
 62
3
370
30
100
AcDbLine
 10
176.36499999999998
 20
3.3680000000000003
 30
150.34
 11
176.262
 21
3.119
 31
150.34
  0
LINE
  5
7D
330
17
100
AcDbEntity
  8
0
 62
3
370
30
100
AcDbLine
 10
176.262
 20
3.119
 30
150.34
 11
176.262
 21
2.669
 31
150.34
  0
LINE
  5
7E
330
17
100
AcDbEntity
  8
0
 62
3
370
30
100
AcDbLine
 10
176.262
 20
2.669
 30
150.34
 11
176.262
 21
2.616
 31
150.34
  0
LINE
  5
7F
330
17
100
AcDbEntity
  8
0
 62
3
370
30
100
AcDbLine
 10
176.262
 20
2.616
 30
150.34
 11
176.262
 21
2.616
 31
153.96
  0
LINE
  5
80
330
17
100
AcDbEntity
  8
0
 62
3
370
30
100
AcDbLine
 10
176.262
 20
2.616
 30
153.96
 11
176.262
 21
2.616
 31
144.238
  0
LINE
  5
81
330
17
100
AcDbEntity
  8
0
 62
3
370
30
100
AcDbLine
 10
176.262
 20
2.616
 30
144.238
 11
176.262
 21
2.616
 31
143.788
  0
LINE
  5
82
330
17
100
AcDbEntity
  8
0
 62
3
370
30
100
AcDbLine
 10
176.262
 20
2.616
 30
143.788
 11
176.262
 21
2.616
 31
137.291
  0
LINE
  5
83
330
17
100
AcDbEntity
  8
0
 62
3
370
30
100
AcDbLine
 10
176.262
 20
2.616
 30
137.291
 11
176.262
 21
2.968
 31
136.939
  0
LINE
  5
84
330
17
100
AcDbEntity
  8
0
 62
3
370
30
100
AcDbLine
 10
176.262
 20
2.968
 30
136.939
 11
176.262
 21
3.5450000000000004
 31
136.939
  0
LINE
  5
85
330
17
100
AcDbEntity
  8
0
 62
3
370
30
100
AcDbLine
 10
176.262
 20
3.5450000000000004
 30
136.939
 11
176.262
 21
3.9210000000000003
 31
136.939
  0
LINE
  5
86
330
17
100
AcDbEntity
  8
0
 62
3
370
30
100
AcDbLine
 10
176.262
 20
3.9210000000000003
 30
136.939
 11
176.262
 21
4.297000000000001
 31
136.939
  0
LINE
  5
87
330
17
100
AcDbEntity
  8
0
 62
3
370
30
100
AcDbLine
 10
176.262
 20
4.297000000000001
 30
136.939
 11
176.041
 21
4.829
 31
136.939
  0
LINE
  5
88
330
17
100
AcDbEntity
  8
0
 62
3
370
30
100
AcDbLine
 10
176.041
 20
4.829
 30
136.939
 11
175.28
 21
5.59
 31
136.939
  0
LINE
  5
89
330
17
100
AcDbEntity
  8
0
 62
3
370
30
100
AcDbLine
 10
175.28
 20
5.59
 30
136.939
 11
175.06
 21
6.122
 31
136.939
  0
LINE
  5
8A
330
17
100
AcDbEntity
  8
0
 62
3
370
30
100
AcDbLine
 10
175.06
 20
6.122
 30
136.939
 11
175.06
 21
6.449
 31
136.939
  0
LINE
  5
8B
330
17
100
AcDbEntity
  8
0
 62
3
370
30
100
AcDbLine
 10
175.06
 20
6.449
 30
136.939
 11
175.06
 21
7.05
 31
136.939
  0
LINE
  5
8C
330
17
100
AcDbEntity
  8
0
 62
3
370
30
100
AcDbLine
 10
175.06
 20
7.05
 30
136.939
 11
175.06
 21
7.651
 31
136.939
  0
LINE
  5
8D
330
17
100
AcDbEntity
  8
0
 62
3
370
30
100
AcDbLine
 10
175.06
 20
7.651
 30
136.939
 11
175.06
 21
9.056999999999999
 31
136.939
  0
LINE
  5
8E
330
17
100
AcDbEntity
  8
0
 62
3
370
30
100
AcDbLine
 10
175.06
 20
9.056999999999999
 30
136.939
 11
175.06
 21
9.508
 31
136.939
  0
LINE
  5
8F
330
17
100
AcDbEntity
  8
0
 62
3
370
30
100
AcDbLine
 10
175.06
 20
9.508
 30
136.939
 11
175.06
 21
9.959
 31
136.939
  0
LINE
  5
90
330
17
100
AcDbEntity
  8
0
 62
3
370
30
100
AcDbLine
 10
175.06
 20
9.959
 30
136.939
 11
175.06
 21
10.527999999999999
 31
136.939
  0
LINE
  5
91
330
17
100
AcDbEntity
  8
0
 62
3
370
30
100
AcDbLine
 10
175.06
 20
10.527999999999999
 30
136.939
 11
175.06
 21
10.879999999999999
 31
136.587
  0
LINE
  5
92
330
17
100
AcDbEntity
  8
0
 62
3
370
30
100
AcDbLine
 10
175.06
 20
10.879999999999999
 30
136.587
 11
175.06
 21
10.879999999999999
 31
136.474
  0
LINE
  5
93
330
17
100
AcDbEntity
  8
0
 62
3
370
30
100
AcDbLine
 10
175.06
 20
10.879999999999999
 30
136.474
 11
175.06
 21
11.232
 31
136.122
  0
LINE
  5
94
330
17
100
AcDbEntity
  8
0
 62
3
370
30
100
AcDbLine
 10
175.06
 20
11.232
 30
136.122
 11
175.06
 21
11.386999999999999
 31
136.122
  0
LINE
  5
95
330
17
100
AcDbEntity
  8
0
 62
3
370
30
100
AcDbLine
 10
175.06
 20
11.386999999999999
 30
136.122
 11
175.06
 21
11.487
 31
136.127
  0
LINE
  5
96
330
17
100
AcDbEntity
  8
0
 62
3
370
30
100
AcDbLine
 10
175.06
 20
11.487
 30
136.127
 11
175.06
 21
14.745
 31
136.127
  0
LINE
  5
97
330
17
100
AcDbEntity
  8
0
 62
3
370
30
100
AcDbLine
 10
175.06
 20
14.745
 30
136.127
 11
175.06
 21
14.866
 31
136.248
  0
LINE
  5
98
330
17
100
AcDbEntity
  8
0
 62
3
370
30
100
AcDbLine
 10
175.06
 20
14.866
 30
136.248
 11
175.06
 21
14.866
 31
136.466
  0
LINE
  5
99
330
17
100
AcDbEntity
  8
0
 62
3
370
30
100
AcDbLine
 10
175.06
 20
14.866
 30
136.466
 11
175.06
 21
14.987
 31
136.587
  0
LINE
  5
9A
330
17
100
AcDbEntity
  8
0
 62
3
370
30
100
AcDbLine
 10
175.06
 20
14.987
 30
136.587
 11
175.06
 21
15.568999999999999
 31
136.587
  0
POINT
  5
9B
330
17
100
AcDbEntity
  8
0
 62
5
100
AcDbPoint
 10
176.553
 20
6.028
 30
150.34
  0
TEXT
  5
9C
330
17
100
AcDbEntity
  8
0
 62
5
100
AcDbText
 10
176.553
 20
4.028
 30
152.34
 40
1.0
  1
C1 Origin (176.553, 6.028, 150.340) System B
100
AcDbText
  0
POINT
  5
9D
330
17
100
AcDbEntity
  8
0
 62
6
100
AcDbPoint
 10
169.378
 20
5.669
 30
140.678
  0
TEXT
  5
9E
330
17
100
AcDbEntity
  8
0
 62
6
100
AcDbText
 10
169.378
 20
3.6689999999999996
 30
142.678
 40
1.0
  1
C4 PPO (169.378, 5.669, 140.678) System B
100
AcDbText
  0
POINT
  5
9F
330
17
100
AcDbEntity
  8
0
 62
4
100
AcDbPoint
 10
174.86
 20
15.369
 30
136.587
  0
TEXT
  5
A0
330
17
100
AcDbEntity
  8
0
 62
4
100
AcDbText
 10
174.86
 20
17.369
 30
138.587
 40
1.0
  1
C3 Destination (174.860, 15.369, 136.587) System B
100
AcDbText
  0
TEXT
  5
A1
330
17
100
AcDbEntity
  8
0
 62
1
100
AcDbText
 10
176.317
 20
3.413
 30
140.678
 40
0.8
  1
C1-C4 Segment
100
AcDbText
  0
TEXT
  5
A2
330
17
100
AcDbEntity
  8
0
 62
1
100
AcDbText
 10
176.062
 20
3.345
 30
136.939
 40
0.8
  1
C4-C3 Segment
100
AcDbText
  0
TEXT
  5
A3
330
17
100
AcDbEntity
  8
0
 62
3
100
AcDbText
 10
175.86
 20
6.922
 30
137.939
 40
0.8
  1
DIRECT PATH
100
AcDbText
  0
TEXT
  5
A4
330
17
100
AcDbEntity
  8
0
 62
7
100
AcDbText
 10
164.378
 20
25.369
 30
158.96
 40
0.4
  1
SCENARIO C3: PPO IMPACT ANALYSIS - 2025-07-01 11:29:25
100
AcDbText
  0
TEXT
  5
A5
330
17
100
AcDbEntity
  8
0
 62
7
100
AcDbText
 10
164.378
 20
24.769
 30
158.96
 40
0.4
  1
Origin C1: (176.553, 6.028, 150.340) System B
100
AcDbText
  0
TEXT
  5
A6
330
17
100
AcDbEntity
  8
0
 62
7
100
AcDbText
 10
164.378
 20
24.169
 30
158.96
 40
0.4
  1
PPO C4: (169.378, 5.669, 140.678) System B
100
AcDbText
  0
TEXT
  5
A7
330
17
100
AcDbEntity
  8
0
 62
7
100
AcDbText
 10
164.378
 20
23.569
 30
158.96
 40
0.4
  1
Destination C3: (174.860, 15.369, 136.587) System B
100
AcDbText
  0
TEXT
  5
A8
330
17
100
AcDbEntity
  8
0
 62
7
100
AcDbText
 10
164.378
 20
22.969
 30
158.96
 40
0.4
  1
Cable Type: C (Both Systems) - Intra-System Routing
100
AcDbText
  0
TEXT
  5
A9
330
17
100
AcDbEntity
  8
0
 62
7
100
AcDbText
 10
164.378
 20
21.769
 30
158.96
 40
0.4
  1
PPO Path: 75 points, 72.493 units, 129 nodes
100
AcDbText
  0
TEXT
  5
AA
330
17
100
AcDbEntity
  8
0
 62
7
100
AcDbText
 10
164.378
 20
21.169
 30
158.96
 40
0.4
  1
Direct Path: 35 points, 38.285 units, 72 nodes
100
AcDbText
  0
TEXT
  5
AB
330
17
100
AcDbEntity
  8
0
 62
7
100
AcDbText
 10
164.378
 20
20.569
 30
158.96
 40
0.4
  1
PPO Impact: +89.4% distance increase - HIGH IMPACT
100
AcDbText
  0
TEXT
  5
AC
330
17
100
AcDbEntity
  8
0
 62
7
100
AcDbText
 10
164.378
 20
19.969
 30
158.96
 40
0.4
  1
PPO Position: 30/75 (40.0%)
100
AcDbText
  0
TEXT
  5
AD
330
17
100
AcDbEntity
  8
0
 62
7
100
AcDbText
 10
164.378
 20
18.769
 30
158.96
 40
0.4
  1
Elevation Changes:
100
AcDbText
  0
TEXT
  5
AE
330
17
100
AcDbEntity
  8
0
 62
7
100
AcDbText
 10
164.378
 20
18.169
 30
158.96
 40
0.4
  1
C1 to C4: -9.662 units
100
AcDbText
  0
TEXT
  5
AF
330
17
100
AcDbEntity
  8
0
 62
7
100
AcDbText
 10
164.378
 20
17.569
 30
158.96
 40
0.4
  1
C4 to C3: -4.091 units
100
AcDbText
  0
TEXT
  5
B0
330
17
100
AcDbEntity
  8
0
 62
7
100
AcDbText
 10
164.378
 20
16.969
 30
158.96
 40
0.4
  1
Total: -13.753 units
100
AcDbText
  0
TEXT
  5
B1
330
17
100
AcDbEntity
  8
0
 62
7
100
AcDbText
 10
164.378
 20
15.769
 30
158.96
 40
0.4
  1
Legend: Red=PPO Path, Green=Direct Path, Blue=Origin, Magenta=PPO, Cyan=Destination
100
AcDbText
  0
ENDSEC
  0
SECTION
  2
OBJECTS
  0
DICTIONARY
  5
A
330
0
100
AcDbDictionary
281
1
  3
ACAD_COLOR
350
B
  3
ACAD_GROUP
350
C
  3
ACAD_LAYOUT
350
D
  3
ACAD_MATERIAL
350
E
  3
ACAD_MLEADERSTYLE
350
F
  3
ACAD_MLINESTYLE
350
10
  3
ACAD_PLOTSETTINGS
350
11
  3
ACAD_PLOTSTYLENAME
350
12
  3
ACAD_SCALELIST
350
14
  3
ACAD_TABLESTYLE
350
15
  3
ACAD_VISUALSTYLE
350
16
  3
EZDXF_META
350
2D
  0
DICTIONARY
  5
B
330
A
100
AcDbDictionary
281
1
  0
DICTIONARY
  5
C
330
A
100
AcDbDictionary
281
1
  0
DICTIONARY
  5
D
330
A
100
AcDbDictionary
281
1
  3
Model
350
1A
  3
Layout1
350
1E
  0
DICTIONARY
  5
E
330
A
100
AcDbDictionary
281
1
  3
ByBlock
350
1F
  3
ByLayer
350
20
  3
Global
350
21
  0
DICTIONARY
  5
F
330
A
100
AcDbDictionary
281
1
  3
Standard
350
2C
  0
DICTIONARY
  5
10
330
A
100
AcDbDictionary
281
1
  3
Standard
350
22
  0
DICTIONARY
  5
11
330
A
100
AcDbDictionary
281
1
  0
ACDBDICTIONARYWDFLT
  5
12
330
A
100
AcDbDictionary
281
1
  3
Normal
350
13
100
AcDbDictionaryWithDefault
340
13
  0
ACDBPLACEHOLDER
  5
13
330
12
  0
DICTIONARY
  5
14
330
A
100
AcDbDictionary
281
1
  0
DICTIONARY
  5
15
330
A
100
AcDbDictionary
281
1
  0
DICTIONARY
  5
16
330
A
100
AcDbDictionary
281
1
  0
LAYOUT
  5
1A
330
D
100
AcDbPlotSettings
  1

  4
A3
  6

 40
7.5
 41
20.0
 42
7.5
 43
20.0
 44
420.0
 45
297.0
 46
0.0
 47
0.0
 48
0.0
 49
0.0
140
0.0
141
0.0
142
1.0
143
1.0
 70
1024
 72
1
 73
0
 74
5
  7

 75
16
 76
0
 77
2
 78
300
147
1.0
148
0.0
149
0.0
100
AcDbLayout
  1
Model
 70
1
 71
0
 10
0.0
 20
0.0
 11
420.0
 21
297.0
 12
0.0
 22
0.0
 32
0.0
 14
1e+20
 24
1e+20
 34
1e+20
 15
-1e+20
 25
-1e+20
 35
-1e+20
146
0.0
 13
0.0
 23
0.0
 33
0.0
 16
1.0
 26
0.0
 36
0.0
 17
0.0
 27
1.0
 37
0.0
 76
1
330
17
  0
LAYOUT
  5
1E
330
D
100
AcDbPlotSettings
  1

  4
A3
  6

 40
7.5
 41
20.0
 42
7.5
 43
20.0
 44
420.0
 45
297.0
 46
0.0
 47
0.0
 48
0.0
 49
0.0
140
0.0
141
0.0
142
1.0
143
1.0
 70
0
 72
1
 73
0
 74
5
  7

 75
16
 76
0
 77
2
 78
300
147
1.0
148
0.0
149
0.0
100
AcDbLayout
  1
Layout1
 70
1
 71
1
 10
0.0
 20
0.0
 11
420.0
 21
297.0
 12
0.0
 22
0.0
 32
0.0
 14
1e+20
 24
1e+20
 34
1e+20
 15
-1e+20
 25
-1e+20
 35
-1e+20
146
0.0
 13
0.0
 23
0.0
 33
0.0
 16
1.0
 26
0.0
 36
0.0
 17
0.0
 27
1.0
 37
0.0
 76
1
330
1B
  0
MATERIAL
  5
1F
102
{ACAD_REACTORS
330
E
102
}
330
E
100
AcDbMaterial
  1
ByBlock
  2

 70
0
 40
1.0
 71
1
 41
1.0
 91
-1023410177
 42
1.0
 72
1
  3

 73
1
 74
1
 75
1
 44
0.5
 73
0
 45
1.0
 46
1.0
 77
1
  4

 78
1
 79
1
170
1
 48
1.0
171
1
  6

172
1
173
1
174
1
140
1.0
141
1.0
175
1
  7

176
1
177
1
178
1
143
1.0
179
1
  8

270
1
271
1
272
1
145
1.0
146
1.0
273
1
  9

274
1
275
1
276
1
 42
1.0
 72
1
  3

 73
1
 74
1
 75
1
 94
63
  0
MATERIAL
  5
20
102
{ACAD_REACTORS
330
E
102
}
330
E
100
AcDbMaterial
  1
ByLayer
  2

 70
0
 40
1.0
 71
1
 41
1.0
 91
-1023410177
 42
1.0
 72
1
  3

 73
1
 74
1
 75
1
 44
0.5
 73
0
 45
1.0
 46
1.0
 77
1
  4

 78
1
 79
1
170
1
 48
1.0
171
1
  6

172
1
173
1
174
1
140
1.0
141
1.0
175
1
  7

176
1
177
1
178
1
143
1.0
179
1
  8

270
1
271
1
272
1
145
1.0
146
1.0
273
1
  9

274
1
275
1
276
1
 42
1.0
 72
1
  3

 73
1
 74
1
 75
1
 94
63
  0
MATERIAL
  5
21
102
{ACAD_REACTORS
330
E
102
}
330
E
100
AcDbMaterial
  1
Global
  2

 70
0
 40
1.0
 71
1
 41
1.0
 91
-1023410177
 42
1.0
 72
1
  3

 73
1
 74
1
 75
1
 44
0.5
 73
0
 45
1.0
 46
1.0
 77
1
  4

 78
1
 79
1
170
1
 48
1.0
171
1
  6

172
1
173
1
174
1
140
1.0
141
1.0
175
1
  7

176
1
177
1
178
1
143
1.0
179
1
  8

270
1
271
1
272
1
145
1.0
146
1.0
273
1
  9

274
1
275
1
276
1
 42
1.0
 72
1
  3

 73
1
 74
1
 75
1
 94
63
  0
MLINESTYLE
  5
22
102
{ACAD_REACTORS
330
10
102
}
330
10
100
AcDbMlineStyle
  2
Standard
 70
0
  3

 62
256
 51
90.0
 52
90.0
 71
2
 49
0.5
 62
256
  6
BYLAYER
 49
-0.5
 62
256
  6
BYLAYER
  0
MLEADERSTYLE
  5
2C
102
{ACAD_REACTORS
330
F
102
}
330
F
100
AcDbMLeaderStyle
179
2
170
2
171
1
172
0
 90
2
 40
0.0
 41
0.0
173
1
 91
-1056964608
 92
-2
290
1
 42
2.0
291
1
 43
8.0
  3
Standard
 44
4.0
300

342
29
174
1
175
1
176
0
178
1
 93
-1056964608
 45
4.0
292
0
297
0
 46
4.0
 94
-1056964608
 47
1.0
 49
1.0
140
1.0
294
1
141
0.0
177
0
142
1.0
295
0
296
0
143
3.75
271
0
272
9
273
9
  0
DICTIONARY
  5
2D
330
A
100
AcDbDictionary
280
1
281
1
  3
CREATED_BY_EZDXF
350
2E
  3
WRITTEN_BY_EZDXF
350
B4
  0
DICTIONARYVAR
  5
2E
330
2D
100
DictionaryVariables
280
0
  1
1.4.2 @ 2025-07-01T09:29:25.449905+00:00
  0
DICTIONARYVAR
  5
B4
330
2D
100
DictionaryVariables
280
0
  1
1.4.2 @ 2025-07-01T09:29:25.453374+00:00
  0
ENDSEC
  0
EOF
