0
SECTION
2
HEADER
9
$ACADVER
1
AC1015
9
$HANDSEED
5
FFFF
9
$DWGCODEPAGE
3
ANSI_1252
0
ENDSEC
0
SECTION
2
TABLES
0
TABLE
2
VPORT
5
8
330
0
100
AcDbSymbolTable
70
4
0
VPORT
5
2E
330
8
100
AcDbSymbolTableRecord
100
AcDbViewportTableRecord
2
*ACTIVE
70
0
10
0.0
20
0.0
11
1.0
21
1.0
12
210.0
22
148.5
13
0.0
23
0.0
14
10.0
24
10.0
15
10.0
25
10.0
16
0.0
26
0.0
36
1.0
17
0.0
27
0.0
37
0.0
40
341.0
41
1.24
42
50.0
43
0.0
44
0.0
50
0.0
51
0.0
71
0
72
100
73
1
74
3
75
0
76
0
77
0
78
0
281
0
65
1
110
0.0
120
0.0
130
0.0
111
1.0
121
0.0
131
0.0
112
0.0
122
1.0
132
0.0
79
0
146
0.0
0
ENDTAB
0
TABLE
2
LTYPE
5
5
330
0
100
AcDbSymbolTable
70
1
0
LTYPE
5
14
330
5
100
AcDbSymbolTableRecord
100
AcDbLinetypeTableRecord
2
BYBLOCK
70
0
3

72
65
73
0
40
0.0
0
LTYPE
5
15
330
5
100
AcDbSymbolTableRecord
100
AcDbLinetypeTableRecord
2
BYLAYER
70
0
3

72
65
73
0
40
0.0
0
LTYPE
5
16
330
5
100
AcDbSymbolTableRecord
100
AcDbLinetypeTableRecord
2
CONTINUOUS
70
0
3
Solid line
72
65
73
0
40
0.0
0
LTYPE
5
17
330
5
100
AcDbSymbolTableRecord
100
AcDbLinetypeTableRecord
2
DASHED
70
0
3
Dashed __ __ __ __ __ __ __ __ __ __ __ __ __ _
72
65
73
2
40
0.6
49
0.5
74
0
49
-0.1
74
0
0
ENDTAB
0
TABLE
2
LAYER
5
2
330
0
100
AcDbSymbolTable
70
10
0
LAYER
5
10
330
2
100
AcDbSymbolTableRecord
100
AcDbLayerTableRecord
2
0
70
0
62
7
6
CONTINUOUS
370
0
390
F
0
LAYER
5
18
330
2
100
AcDbSymbolTableRecord
100
AcDbLayerTableRecord
2
FORBIDDEN_SECTIONS
70
0
62
2
6
CONTINUOUS
370
0
390
F
0
LAYER
5
19
330
2
100
AcDbSymbolTableRecord
100
AcDbLayerTableRecord
2
ORIGIN_DEST
70
0
62
4
6
CONTINUOUS
370
0
390
F
0
LAYER
5
1A
330
2
100
AcDbSymbolTableRecord
100
AcDbLayerTableRecord
2
ALGORITHM_PATH
70
0
62
3
6
CONTINUOUS
370
0
390
F
0
LAYER
5
1B
330
2
100
AcDbSymbolTableRecord
100
AcDbLayerTableRecord
2
DIRECT_PATH
70
0
62
5
6
DASHED
370
0
390
F
0
LAYER
5
1C
330
2
100
AcDbSymbolTableRecord
100
AcDbLayerTableRecord
2
LABELS
70
0
62
7
6
CONTINUOUS
370
0
390
F
0
ENDTAB
0
TABLE
2
STYLE
5
3
330
0
100
AcDbSymbolTable
70
1
0
STYLE
5
11
330
3
100
AcDbSymbolTableRecord
100
AcDbTextStyleTableRecord
2
STANDARD
70
0
40
0.0
41
1.0
50
0.0
71
0
42
0.2
3
txt
4

0
ENDTAB
0
TABLE
2
UCS
5
7
330
0
100
AcDbSymbolTable
70
0
0
ENDTAB
0
TABLE
2
APPID
5
9
330
0
100
AcDbSymbolTable
70
2
0
APPID
5
12
330
9
100
AcDbSymbolTableRecord
100
AcDbRegAppTableRecord
2
ACAD
70
0
0
ENDTAB
0
TABLE
2
DIMSTYLE
5
A
330
0
100
AcDbSymbolTable
70
1
0
DIMSTYLE
105
27
330
A
100
AcDbSymbolTableRecord
100
AcDbDimStyleTableRecord
2
ISO-25
70
0
0
ENDTAB
0
TABLE
2
BLOCK_RECORD
5
1
330
0
100
AcDbSymbolTable
70
1
0
BLOCK_RECORD
5
1F
330
1
100
AcDbSymbolTableRecord
2
*MODEL_SPACE
340
22
0
BLOCK_RECORD
5
1B
330
1
100
AcDbSymbolTableRecord
2
*PAPER_SPACE
340
1E
0
ENDTAB
0
ENDSEC
0
SECTION
2
BLOCKS
0
BLOCK
5
20
330
1F
100
AcDbEntity
8
0
100
AcDbBlockBegin
2
*MODEL_SPACE
70
0
10
0.0
20
0.0
30
0.0
3
*MODEL_SPACE
1

0
ENDBLK
5
21
330
1F
100
AcDbEntity
8
0
100
AcDbBlockEnd
0
BLOCK
5
1C
330
1B
100
AcDbEntity
67
1
8
0
100
AcDbBlockBegin
2
*PAPER_SPACE
70
0
10
0.0
20
0.0
30
0.0
3
*PAPER_SPACE
1

0
ENDBLK
5
1D
330
1B
100
AcDbEntity
67
1
8
0
100
AcDbBlockEnd
0
ENDSEC
0
SECTION
2
ENTITIES
0
LINE
5
65
330
1F
100
AcDbEntity
8
FORBIDDEN_SECTIONS
62
2
100
AcDbLine
10
139.683000
20
27.925000
30
149.385000
11
140.183000
21
28.000000
31
149.385000
0
TEXT
5
12D
330
1F
100
AcDbEntity
8
LABELS
62
2
100
AcDbText
10
139.933000
20
27.962500
30
150.385000
40
1.000000
1
TRAMO_4
50
0.0
51
0.0
7
STANDARD
71
0
72
0
11
139.933000
21
27.962500
31
150.385000
100
AcDbText
0
CIRCLE
5
C9
330
1F
100
AcDbEntity
8
FORBIDDEN_SECTIONS
62
2
100
AcDbCircle
10
139.683000
20
27.925000
30
149.385000
40
0.500000
0
CIRCLE
5
CA
330
1F
100
AcDbEntity
8
FORBIDDEN_SECTIONS
62
2
100
AcDbCircle
10
140.183000
20
28.000000
30
149.385000
40
0.500000
0
TEXT
5
12E
330
1F
100
AcDbEntity
8
LABELS
62
2
100
AcDbText
10
140.183000
20
27.925000
30
148.385000
40
0.400000
1
(139.7,27.9,149.4)
50
0.0
51
0.0
7
STANDARD
71
0
72
0
11
140.183000
21
27.925000
31
148.385000
100
AcDbText
0
TEXT
5
12F
330
1F
100
AcDbEntity
8
LABELS
62
2
100
AcDbText
10
140.683000
20
28.000000
30
148.385000
40
0.400000
1
(140.2,28.0,149.4)
50
0.0
51
0.0
7
STANDARD
71
0
72
0
11
140.683000
21
28.000000
31
148.385000
100
AcDbText
0
LINE
5
66
330
1F
100
AcDbEntity
8
FORBIDDEN_SECTIONS
62
2
100
AcDbLine
10
140.183000
20
28.000000
30
149.385000
11
140.679000
21
28.000000
31
149.385000
0
TEXT
5
130
330
1F
100
AcDbEntity
8
LABELS
62
2
100
AcDbText
10
140.431000
20
28.000000
30
150.385000
40
1.000000
1
TRAMO_200
50
0.0
51
0.0
7
STANDARD
71
0
72
0
11
140.431000
21
28.000000
31
150.385000
100
AcDbText
0
CIRCLE
5
CB
330
1F
100
AcDbEntity
8
FORBIDDEN_SECTIONS
62
2
100
AcDbCircle
10
140.183000
20
28.000000
30
149.385000
40
0.500000
0
CIRCLE
5
CC
330
1F
100
AcDbEntity
8
FORBIDDEN_SECTIONS
62
2
100
AcDbCircle
10
140.679000
20
28.000000
30
149.385000
40
0.500000
0
TEXT
5
131
330
1F
100
AcDbEntity
8
LABELS
62
2
100
AcDbText
10
140.683000
20
28.000000
30
148.385000
40
0.400000
1
(140.2,28.0,149.4)
50
0.0
51
0.0
7
STANDARD
71
0
72
0
11
140.683000
21
28.000000
31
148.385000
100
AcDbText
0
TEXT
5
132
330
1F
100
AcDbEntity
8
LABELS
62
2
100
AcDbText
10
141.179000
20
28.000000
30
148.385000
40
0.400000
1
(140.7,28.0,149.4)
50
0.0
51
0.0
7
STANDARD
71
0
72
0
11
141.179000
21
28.000000
31
148.385000
100
AcDbText
0
CIRCLE
5
CD
330
1F
100
AcDbEntity
8
ORIGIN_DEST
62
4
100
AcDbCircle
10
139.232000
20
28.845000
30
139.993000
40
2.000000
0
TEXT
5
133
330
1F
100
AcDbEntity
8
LABELS
62
4
100
AcDbText
10
141.732000
20
28.845000
30
139.993000
40
1.500000
1
ORIGIN
50
0.0
51
0.0
7
STANDARD
71
0
72
0
11
141.732000
21
28.845000
31
139.993000
100
AcDbText
0
TEXT
5
134
330
1F
100
AcDbEntity
8
LABELS
62
4
100
AcDbText
10
141.732000
20
27.345000
30
139.993000
40
0.800000
1
(139.2,28.8,140.0)
50
0.0
51
0.0
7
STANDARD
71
0
72
0
11
141.732000
21
27.345000
31
139.993000
100
AcDbText
0
CIRCLE
5
CE
330
1F
100
AcDbEntity
8
ORIGIN_DEST
62
4
100
AcDbCircle
10
152.290000
20
17.883000
30
160.124000
40
2.000000
0
TEXT
5
135
330
1F
100
AcDbEntity
8
LABELS
62
4
100
AcDbText
10
154.790000
20
17.883000
30
160.124000
40
1.500000
1
DESTINATION
50
0.0
51
0.0
7
STANDARD
71
0
72
0
11
154.790000
21
17.883000
31
160.124000
100
AcDbText
0
TEXT
5
136
330
1F
100
AcDbEntity
8
LABELS
62
4
100
AcDbText
10
154.790000
20
16.383000
30
160.124000
40
0.800000
1
(152.3,17.9,160.1)
50
0.0
51
0.0
7
STANDARD
71
0
72
0
11
154.790000
21
16.383000
31
160.124000
100
AcDbText
0
LINE
5
67
330
1F
100
AcDbEntity
8
DIRECT_PATH
62
5
100
AcDbLine
10
139.232000
20
28.845000
30
139.993000
11
152.290000
21
17.883000
31
160.124000
0
TEXT
5
137
330
1F
100
AcDbEntity
8
LABELS
62
5
100
AcDbText
10
145.761000
20
23.364000
30
151.058500
40
0.800000
1
DIRECT_PATH
50
0.0
51
0.0
7
STANDARD
71
0
72
0
11
145.761000
21
23.364000
31
151.058500
100
AcDbText
0
LINE
5
68
330
1F
100
AcDbEntity
8
ALGORITHM_PATH
62
3
100
AcDbLine
10
139.232000
20
28.845000
30
139.993000
11
139.232000
21
28.845000
31
149.386000
0
LINE
5
69
330
1F
100
AcDbEntity
8
ALGORITHM_PATH
62
3
100
AcDbLine
10
139.232000
20
28.845000
30
149.386000
11
139.232000
21
28.845000
31
152.313000
0
LINE
5
6A
330
1F
100
AcDbEntity
8
ALGORITHM_PATH
62
3
100
AcDbLine
10
139.232000
20
28.845000
30
152.313000
11
139.232000
21
28.845000
31
160.703000
0
LINE
5
6B
330
1F
100
AcDbEntity
8
ALGORITHM_PATH
62
3
100
AcDbLine
10
139.232000
20
28.845000
30
160.703000
11
139.232000
21
28.755000
31
160.703000
0
LINE
5
6C
330
1F
100
AcDbEntity
8
ALGORITHM_PATH
62
3
100
AcDbLine
10
139.232000
20
28.755000
30
160.703000
11
139.232000
21
28.255000
31
160.703000
0
LINE
5
6D
330
1F
100
AcDbEntity
8
ALGORITHM_PATH
62
3
100
AcDbLine
10
139.232000
20
28.255000
30
160.703000
11
139.232000
21
25.521000
31
160.703000
0
LINE
5
6E
330
1F
100
AcDbEntity
8
ALGORITHM_PATH
62
3
100
AcDbLine
10
139.232000
20
25.521000
30
160.703000
11
139.608000
21
25.145000
31
160.703000
0
LINE
5
6F
330
1F
100
AcDbEntity
8
ALGORITHM_PATH
62
3
100
AcDbLine
10
139.608000
20
25.145000
30
160.703000
11
147.156000
21
25.145000
31
160.703000
0
LINE
5
70
330
1F
100
AcDbEntity
8
ALGORITHM_PATH
62
3
100
AcDbLine
10
147.156000
20
25.145000
30
160.703000
11
147.405000
21
25.145000
31
160.600000
0
LINE
5
71
330
1F
100
AcDbEntity
8
ALGORITHM_PATH
62
3
100
AcDbLine
10
147.405000
20
25.145000
30
160.600000
11
147.778000
21
25.145000
31
160.227000
0
LINE
5
72
330
1F
100
AcDbEntity
8
ALGORITHM_PATH
62
3
100
AcDbLine
10
147.778000
20
25.145000
30
160.227000
11
148.027000
21
25.145000
31
160.124000
0
LINE
5
73
330
1F
100
AcDbEntity
8
ALGORITHM_PATH
62
3
100
AcDbLine
10
148.027000
20
25.145000
30
160.124000
11
151.914000
21
25.145000
31
160.124000
0
LINE
5
74
330
1F
100
AcDbEntity
8
ALGORITHM_PATH
62
3
100
AcDbLine
10
151.914000
20
25.145000
30
160.124000
11
152.290000
21
25.145000
31
160.124000
0
LINE
5
75
330
1F
100
AcDbEntity
8
ALGORITHM_PATH
62
3
100
AcDbLine
10
152.290000
20
25.145000
30
160.124000
11
152.290000
21
24.769000
31
160.124000
0
LINE
5
76
330
1F
100
AcDbEntity
8
ALGORITHM_PATH
62
3
100
AcDbLine
10
152.290000
20
24.769000
30
160.124000
11
152.290000
21
17.883000
31
160.124000
0
TEXT
5
138
330
1F
100
AcDbEntity
8
LABELS
62
3
100
AcDbText
10
139.232000
20
28.845000
30
140.493000
40
0.300000
1
P1
50
0.0
51
0.0
7
STANDARD
71
0
72
0
11
139.232000
21
28.845000
31
140.493000
100
AcDbText
0
TEXT
5
139
330
1F
100
AcDbEntity
8
LABELS
62
3
100
AcDbText
10
139.232000
20
28.845000
30
161.203000
40
0.300000
1
P4
50
0.0
51
0.0
7
STANDARD
71
0
72
0
11
139.232000
21
28.845000
31
161.203000
100
AcDbText
0
TEXT
5
13A
330
1F
100
AcDbEntity
8
LABELS
62
3
100
AcDbText
10
139.232000
20
25.521000
30
161.203000
40
0.300000
1
P7
50
0.0
51
0.0
7
STANDARD
71
0
72
0
11
139.232000
21
25.521000
31
161.203000
100
AcDbText
0
TEXT
5
13B
330
1F
100
AcDbEntity
8
LABELS
62
3
100
AcDbText
10
147.405000
20
25.145000
30
161.100000
40
0.300000
1
P10
50
0.0
51
0.0
7
STANDARD
71
0
72
0
11
147.405000
21
25.145000
31
161.100000
100
AcDbText
0
TEXT
5
13C
330
1F
100
AcDbEntity
8
LABELS
62
3
100
AcDbText
10
151.914000
20
25.145000
30
160.624000
40
0.300000
1
P13
50
0.0
51
0.0
7
STANDARD
71
0
72
0
11
151.914000
21
25.145000
31
160.624000
100
AcDbText
0
TEXT
5
13D
330
1F
100
AcDbEntity
8
LABELS
62
3
100
AcDbText
10
152.290000
20
17.883000
30
160.624000
40
0.300000
1
P16
50
0.0
51
0.0
7
STANDARD
71
0
72
0
11
152.290000
21
17.883000
31
160.624000
100
AcDbText
0
ENDSEC
0
SECTION
2
OBJECTS
0
DICTIONARY
5
C
330
0
100
AcDbDictionary
3
ACAD_GROUP
350
D
3
ACAD_MLINESTYLE
350
17
0
DICTIONARY
5
D
330
C
100
AcDbDictionary
0
DICTIONARY
5
1A
330
C
100
AcDbDictionary
0
ENDSEC
0
EOF
